# File created by Blade
# Date/Time:  Fri Jan 16 17:45:47 2015
#---------------------------------------------------------
:version 1.10
:name HOM
:units
  mass 1.0
  length 1.000000
  angle deg
:documentation
     Acclaim Skeleton File
:root
   axis xyz
   order TX TY TZ RX RY RZ
   position 0.000000 0.000000 0.000000
   orientation 0 0 0
:bonedata
   begin
      id 1
      name Spine_dum
      direction 0.000000 1.000000 0.000000
      length 7.170412
      axis 0.0 0.0 0.0 xyz
   end
   begin
      id 2
      name LeftUpLeg_dum
      direction 1.000000 0.000000 0.000000
      length 4.318350
      axis 0.0 0.0 0.0 xyz
   end
   begin
      id 3
      name RightUpLeg_dum
      direction -1.000000 0.000000 0.000000
      length 4.318350
      axis 0.0 0.0 0.0 xyz
   end
   begin
      id 4
      name Spine
      direction 0.000000 1.000000 0.000000
      length 0.000000
      axis 0.0 0.0 0.0 xyz
      dof rx ry rz
   end
   begin
      id 5
      name Spine_dum1
      direction 0.000000 1.000000 0.000000
      length 14.276153
      axis 0.0 0.0 0.0 xyz
   end
   begin
      id 6
      name Spine_dum2
      direction 0.000000 1.000000 0.000000
      length 10.718243
      axis 0.0 0.0 0.0 xyz
   end
   begin
      id 7
      name Spine_dum3
      direction 0.000000 1.000000 0.000000
      length 10.718243
      axis 0.0 0.0 0.0 xyz
   end
   begin
      id 8
      name Head
      direction 0.000000 1.000000 0.000000
      length 4.527550
      axis 0.0 0.0 0.0 xyz
      dof rx ry rz
   end
   begin
      id 9
      name LeftShoulder
      direction 1.000000 0.000000 0.000000
      length 7.058872
      axis 0.0 0.0 -90.0 xyz
      dof rx ry rz
   end
   begin
      id 10
      name LeftArm
      direction 1.000000 0.000000 0.000000
      length 10.955525
      axis 0.0 0.0 -90.0 xyz
      dof rx ry rz
   end
   begin
      id 11
      name LeftForeArm
      direction 1.000000 0.000000 0.000000
      length 8.193716
      axis 0.0 0.0 -90.0 xyz
      dof ry rz rx
   end
   begin
      id 12
      name LeftHand
      direction 0.000000 0.000000 0.000000
      length 0.000000
      axis 0.0 0.0 -90.0 xyz
      dof rx ry rz
   end
   begin
      id 13
      name LeftHand_dum1
      direction 0.000000 0.000000 0.000000
      length 0.000000
      axis 0.0 0.0 -90.0 xyz
   end
   begin
      id 14
      name LeftHand_dum2
      direction 1.000000 0.000000 0.000000
      length 3.937000
      axis 0.0 0.0 -90.0 xyz
   end
   begin
      id 15
      name LeftHandThumb1
      direction 0.000000 0.000000 1.000000
      length 3.937000
      axis 0.0 0.0 -90.0 xyz
      dof rx rz ry
   end
   begin
      id 16
      name RightShoulder
      direction -1.000000 0.000000 0.000000
      length 7.058872
      axis 0.0 0.0 90.0 xyz
      dof rx ry rz
   end
   begin
      id 17
      name RightArm
      direction -1.000000 0.000000 0.000000
      length 10.955525
      axis 0.0 0.0 90.0 xyz
      dof rx ry rz
   end
   begin
      id 18
      name RightForeArm
      direction -1.000000 0.000000 0.000000
      length 8.193716
      axis 0.0 0.0 90.0 xyz
      dof ry rz rx
   end
   begin
      id 19
      name RightHand
      direction 0.000000 0.000000 0.000000
      length 0.000000
      axis 0.0 0.0 90.0 xyz
      dof rx ry rz
   end
   begin
      id 20
      name RightHand_dum1
      direction 0.000000 0.000000 0.000000
      length 0.000000
      axis 0.0 0.0 90.0 xyz
   end
   begin
      id 21
      name RightHand_dum2
      direction -1.000000 0.000000 0.000000
      length 3.937000
      axis 0.0 0.0 90.0 xyz
   end
   begin
      id 22
      name RightHandThumb1
      direction 0.000000 0.000000 1.000000
      length 3.937000
      axis 0.0 0.0 90.0 xyz
      dof rx rz ry
   end
   begin
      id 23
      name LeftUpLeg
      direction 0.000000 -1.000000 0.000000
      length 17.323638
      axis 0.0 0.0 0.0 xyz
      dof rx ry rz
   end
   begin
      id 24
      name LeftLeg
      direction 0.000000 -1.000000 0.000000
      length 16.270368
      axis 0.0 0.0 0.0 xyz
      dof rx ry rz
   end
   begin
      id 25
      name LeftFoot
      direction 0.000000 -0.258819 0.965926
      length 4.922846
      axis 15.0 0.0 0.0 xyz
      dof rx ry rz
   end
   begin
      id 26
      name LeftToeBase
      direction 0.000000 0.000000 1.000000
      length 2.952750
      axis 0.0 0.0 0.0 xyz
      dof rx ry rz
   end
   begin
      id 27
      name RightUpLeg
      direction 0.000000 -1.000000 0.000000
      length 17.323638
      axis 0.0 0.0 0.0 xyz
      dof rx ry rz
   end
   begin
      id 28
      name RightLeg
      direction 0.000000 -1.000000 0.000000
      length 16.270368
      axis 0.0 0.0 0.0 xyz
      dof rx ry rz
   end
   begin
      id 29
      name RightFoot
      direction 0.000000 -0.258819 0.965926
      length 4.922846
      axis 15.0 0.0 0.0 xyz
      dof rx ry rz
   end
   begin
      id 30
      name RightToeBase
      direction 0.000000 0.000000 1.000000
      length 2.952750
      axis 0.0 0.0 0.0 xyz
      dof rx ry rz
   end
:hierarchy
   begin
      root Spine_dum LeftUpLeg_dum RightUpLeg_dum
      Spine_dum Spine
      LeftUpLeg_dum LeftUpLeg
      RightUpLeg_dum RightUpLeg
      Spine Spine_dum1 Spine_dum2 Spine_dum3
      Spine_dum1 Head
      Spine_dum2 LeftShoulder
      Spine_dum3 RightShoulder
      LeftShoulder LeftArm
      LeftArm LeftForeArm
      LeftForeArm LeftHand
      LeftHand LeftHand_dum1 LeftHand_dum2
      LeftHand_dum1 LeftHandThumb1
      RightShoulder RightArm
      RightArm RightForeArm
      RightForeArm RightHand
      RightHand RightHand_dum1 RightHand_dum2
      RightHand_dum1 RightHandThumb1
      LeftUpLeg LeftLeg
      LeftLeg LeftFoot
      LeftFoot LeftToeBase
      RightUpLeg RightLeg
      RightLeg RightFoot
      RightFoot RightToeBase
   end

# File created by Blade
# Date/Time:  Fri Jan 16 17:45:28 2015
# Frame Rate: 120.000 fps
#------------------------------------------------------
:FULLY-SPECIFIED
:DEGREES
1
root -5.221134 35.348677 -10.364592 0.386617 -3.126620 -5.187173
Spine -1.614297 -1.369895 9.847979
Head -2.450509 5.325907 -7.772499
LeftShoulder -21.568626 11.048246 4.131256
LeftArm 33.436998 -57.649940 -32.355898
LeftForeArm 19.881565 -0.000000 6.100625
LeftHand -5.507946 -0.000000 0.026771
LeftHandThumb1 -26.253704 0.000000 33.147579
RightShoulder -7.584925 17.952003 -21.346755
RightArm 1.131978 20.256396 11.835989
RightForeArm -38.817538 -0.000000 16.365659
RightHand -4.992085 -0.000000 10.465500
RightHandThumb1 -24.326973 -0.000000 -32.862282
LeftUpLeg 8.033539 14.350595 5.576544
LeftLeg -8.648043 -0.000000 0.000000
LeftFoot -14.264057 25.306813 -9.339464
LeftToeBase 22.183430 -0.000000 -0.000000
RightUpLeg 5.432967 -6.637139 3.346080
RightLeg -4.311554 -0.000000 0.000000
RightFoot -3.757004 -27.047037 4.180128
RightToeBase 13.418853 -0.000000 -0.000000
2
root -5.231679 35.346954 -10.357113 0.408038 -3.178577 -5.215083
Spine -1.674515 -1.307898 9.822220
Head -2.404320 5.349398 -7.621032
LeftShoulder -21.595437 11.066983 4.156538
LeftArm 33.410520 -57.506273 -32.292691
LeftForeArm 20.037244 -0.000000 6.088841
LeftHand -5.620937 -0.000000 0.099640
LeftHandThumb1 -26.253704 0.000000 33.147579
RightShoulder -7.678580 18.002580 -21.238300
RightArm 1.181814 20.353444 11.945991
RightForeArm -38.919559 -0.000000 16.265341
RightHand -5.079866 -0.000000 10.725720
RightHandThumb1 -24.326973 -0.000000 -32.862282
LeftUpLeg 8.055910 14.338480 5.617315
LeftLeg -8.686389 -0.000000 0.000000
LeftFoot -14.260792 25.344738 -9.399131
LeftToeBase 22.058275 -0.000000 -0.000000
RightUpLeg 5.425502 -6.644961 3.390069
RightLeg -4.319425 -0.000000 0.000000
RightFoot -3.754915 -27.011891 4.159219
RightToeBase 13.454472 -0.000000 -0.000000
3
root -5.243006 35.345599 -10.351795 0.452325 -3.249855 -5.251708
Spine -1.765706 -1.250672 9.812758
Head -2.332677 5.408854 -7.487718
LeftShoulder -21.617660 11.101602 4.167990
LeftArm 33.267632 -57.362189 -32.112786
LeftForeArm 20.164999 -0.000000 6.079244
LeftHand -5.662398 -0.000000 -0.000083
LeftHandThumb1 -26.253704 0.000000 33.147579
RightShoulder -7.717595 18.048241 -21.121723
RightArm 1.195287 20.479933 12.030371
RightForeArm -39.124224 -0.000000 16.175576
RightHand -5.016604 -0.000000 10.958743
RightHandThumb1 -24.326973 -0.000000 -32.862282
LeftUpLeg 8.051586 14.344892 5.660692
LeftLeg -8.709019 -0.000000 0.000000
LeftFoot -14.300460 25.442433 -9.328203
LeftToeBase 22.205511 -0.000000 -0.000000
RightUpLeg 5.382512 -6.645686 3.444066
RightLeg -4.309796 -0.000000 0.000000
RightFoot -3.753523 -26.939960 4.142971
RightToeBase 13.449776 -0.000000 -0.000000
4
root -5.254657 35.343214 -10.344803 0.484645 -3.329159 -5.282892
Spine -1.839006 -1.181267 9.784939
Head -2.274946 5.464581 -7.339004
LeftShoulder -21.654068 11.147262 4.210709
LeftArm 33.135580 -57.171092 -31.951008
LeftForeArm 20.266940 -0.000000 6.061437
LeftHand -5.681051 -0.000000 -0.150724
LeftHandThumb1 -26.253704 0.000000 33.147579
RightShoulder -7.763296 18.063583 -20.991236
RightArm 1.217078 20.703413 12.128298
RightForeArm -39.355359 -0.000000 16.149559
RightHand -5.262036 0.000000 11.465501
RightHandThumb1 -24.326973 -0.000000 -32.862282
LeftUpLeg 8.066433 14.383157 5.706796
LeftLeg -8.738234 -0.000000 0.000000
LeftFoot -14.324866 25.493674 -9.304903
LeftToeBase 22.214986 -0.000000 -0.000000
RightUpLeg 5.358920 -6.621221 3.485800
RightLeg -4.304351 -0.000000 0.000000
RightFoot -3.769894 -26.865600 4.170426
RightToeBase 13.383495 -0.000000 -0.000000
5
root -5.266907 35.341808 -10.337988 0.518519 -3.409136 -5.327043
Spine -1.908044 -1.110748 9.775369
Head -2.229298 5.541883 -7.196347
LeftShoulder -21.716651 11.189924 4.234974
LeftArm 33.051779 -57.006612 -31.832170
LeftForeArm 20.655374 -0.000000 6.085882
LeftHand -5.752595 -0.000000 -0.419001
LeftHandThumb1 -26.253704 0.000000 33.147579
RightShoulder -7.820183 18.123429 -20.859624
RightArm 1.212819 20.885158 12.201949
RightForeArm -39.634784 -0.000000 16.149988
RightHand -5.322033 -0.000000 11.617286
RightHandThumb1 -24.326973 -0.000000 -32.862282
LeftUpLeg 8.070538 14.367439 5.764290
LeftLeg -8.749808 -0.000000 0.000000
LeftFoot -14.354089 25.585165 -9.296400
LeftToeBase 22.220086 -0.000000 -0.000000
RightUpLeg 5.339615 -6.584063 3.544665
RightLeg -4.311468 -0.000000 0.000000
RightFoot -3.766309 -26.801045 4.210822
RightToeBase 13.318556 -0.000000 -0.000000
6
root -5.278613 35.339682 -10.328623 0.524906 -3.497453 -5.374829
Spine -1.946723 -1.035476 9.779607
Head -2.190149 5.683355 -7.060059
LeftShoulder -21.752615 11.247942 4.258558
LeftArm 32.815451 -56.744544 -31.563179
LeftForeArm 20.739432 -0.000000 6.091822
LeftHand -5.710239 -0.000000 -0.506726
LeftHandThumb1 -26.253704 0.000000 33.147579
RightShoulder -7.865586 18.202261 -20.740990
RightArm 1.162223 21.076080 12.253629
RightForeArm -39.857660 -0.000000 16.217223
RightHand -5.282269 0.000000 11.597175
RightHandThumb1 -24.326973 -0.000000 -32.862282
LeftUpLeg 8.127037 14.468605 5.835540
LeftLeg -8.794978 -0.000000 0.000000
LeftFoot -14.376282 25.595938 -9.257826
LeftToeBase 22.277168 -0.000000 -0.000000
RightUpLeg 5.355894 -6.514801 3.605741
RightLeg -4.325502 -0.000000 0.000000
RightFoot -3.775115 -26.776690 4.228510
RightToeBase 13.317513 -0.000000 -0.000000
7
root -5.287375 35.338246 -10.322012 0.555723 -3.591282 -5.406812
Spine -2.017337 -0.953752 9.779046
Head -2.129214 5.773190 -6.969874
LeftShoulder -21.785509 11.345581 4.266714
LeftArm 32.518895 -56.436594 -31.233955
LeftForeArm 20.765106 -0.000000 6.132079
LeftHand -5.675305 -0.000000 -0.612382
LeftHandThumb1 -26.253704 0.000000 33.147579
RightShoulder -7.899893 18.274636 -20.649865
RightArm 1.123975 21.161674 12.308423
RightForeArm -39.984344 -0.000000 16.175172
RightHand -5.333473 -0.000000 11.593171
RightHandThumb1 -24.326973 -0.000000 -32.862282
LeftUpLeg 8.135041 14.443787 5.872434
LeftLeg -8.799358 -0.000000 0.000000
LeftFoot -14.400852 25.682632 -9.343990
LeftToeBase 22.092756 -0.000000 -0.000000
RightUpLeg 5.335936 -6.469517 3.648585
RightLeg -4.331170 -0.000000 0.000000
RightFoot -3.769984 -26.724201 4.235634
RightToeBase 13.302789 -0.000000 -0.000000
8
root -5.296847 35.336641 -10.314821 0.584999 -3.696702 -5.446657
Spine -2.071419 -0.861521 9.764830
Head -2.101234 5.842205 -6.842124
LeftShoulder -21.882009 11.448437 4.292502
LeftArm 32.344185 -56.055477 -30.987957
LeftForeArm 20.869066 -0.000000 6.130214
LeftHand -5.779131 -0.000000 -0.685742
LeftHandThumb1 -26.253704 0.000000 33.147579
RightShoulder -7.952145 18.361168 -20.527517
RightArm 1.084785 21.241718 12.368205
RightForeArm -40.217710 -0.000000 16.318076
RightHand -5.695545 -0.000000 11.850637
RightHandThumb1 -24.326973 -0.000000 -32.862282
LeftUpLeg 8.161274 14.549089 5.927488
LeftLeg -8.825949 -0.000000 0.000000
LeftFoot -14.413455 25.686729 -9.325157
LeftToeBase 22.071100 -0.000000 -0.000000
RightUpLeg 5.315878 -6.411285 3.698177
RightLeg -4.330098 -0.000000 0.000000
RightFoot -3.772225 -26.666407 4.261530
RightToeBase 13.272324 -0.000000 -0.000000
9
root -5.304730 35.334051 -10.306665 0.603551 -3.802622 -5.482440
Spine -2.113854 -0.774829 9.761095
Head -2.081027 5.948919 -6.726921
LeftShoulder -21.972834 11.556409 4.316641
LeftArm 32.095995 -55.635333 -30.676480
LeftForeArm 20.900673 -0.000000 6.138171
LeftHand -5.680091 -0.000000 -0.856288
LeftHandThumb1 -26.253704 0.000000 33.147579
RightShoulder -8.002109 18.399861 -20.414259
RightArm 1.063269 21.311913 12.405341
RightForeArm -40.379193 -0.000000 16.405523
RightHand -5.908919 -0.000000 12.141761
RightHandThumb1 -24.326973 -0.000000 -32.862282
LeftUpLeg 8.190405 14.582705 5.979749
LeftLeg -8.844297 -0.000000 0.000000
LeftFoot -14.460409 25.765505 -9.271828
LeftToeBase 22.198882 -0.000000 -0.000000
RightUpLeg 5.310547 -6.333283 3.742287
RightLeg -4.335719 -0.000000 0.000000
RightFoot -3.777643 -26.637248 4.251139
RightToeBase 13.290149 -0.000000 -0.000000
10
root -5.312607 35.332379 -10.298452 0.614958 -3.907352 -5.521102
Spine -2.148925 -0.681872 9.767366
Head -2.054621 6.048135 -6.634380
LeftShoulder -22.026572 11.690492 4.318675
LeftArm 31.755575 -55.191308 -30.247677
LeftForeArm 20.903805 -0.000000 6.138045
LeftHand -5.721652 -0.000000 -1.063244
LeftHandThumb1 -26.253704 0.000000 33.147579
RightShoulder -8.046385 18.405971 -20.319349
RightArm 1.028084 21.411960 12.452858
RightForeArm -40.382107 -0.000000 16.429021
RightHand -5.935721 -0.000000 12.115892
RightHandThumb1 -24.326973 -0.000000 -32.862282
LeftUpLeg 8.242592 14.665665 6.034579
LeftLeg -8.877841 -0.000000 0.000000
LeftFoot -14.490246 25.805198 -9.184708
LeftToeBase 22.330958 -0.000000 -0.000000
RightUpLeg 5.306984 -6.284084 3.788304
RightLeg -4.331036 -0.000000 0.000000
RightFoot -3.782698 -26.588058 4.260217
RightToeBase 13.286853 -0.000000 -0.000000
